# xmcd
#
# Track frame offsets:
# 150
# 20554
# 35323
# 51281
# 64924
# 83876
# 96318
# 109474
# 130285
# 145451
#
# Disc length: 2198 seconds
#
#
# Revision: 0
# Processed by: cddbd v1.5.1PL2 Copyright (c) Steve Scherf et al.
# Submitted via: FreeRIP 2.943 
#
DISCID=9308940a
DTITLE=Pam Tillis - Pam Tillis - Just In Time For Christmas
DYEAR=2005
DGENRE=Christmas/Country
TTITLE0=Have Yourself A Merry Little Christmas
TTITLE1=Beautiful Night
TTITLE2=Light Of The World
TTITLE3=Christmas Waltz
TTITLE4=New Year's Eve
TTITLE5=The Rockin' Christmas Medley
TTITLE6=Pretty Paper
TTITLE7=Silent Night Medley
TTITLE8=Seasons
TTITLE9=I'll Be Home For Christmas
EXTD=
EXTT0=
EXTT1=
EXTT2=
EXTT3=
EXTT4=
EXTT5=With Mel Tillis
EXTT6=
EXTT7=
EXTT8=
EXTT9=
PLAYORDER=
